<svg width="20" height="21" viewBox="0 0 20 21" fill="none" xmlns="http://www.w3.org/2000/svg">
<path fill-rule="evenodd" clip-rule="evenodd" d="M10.0067 0.5C11.6245 0.5 13.2361 0.899066 14.668 1.65403C19.5432 4.22638 21.4181 10.2855 18.8475 15.1624C17.0942 18.4879 13.642 20.5 9.9953 20.5C9.28286 20.5 8.56337 20.4234 7.84741 20.2648C7.44408 20.1749 7.18957 19.775 7.27851 19.3715C7.36746 18.968 7.76639 18.7152 8.17237 18.8024C11.8966 19.6305 15.7415 17.8431 17.523 14.4638C19.7088 10.3181 18.1148 5.16546 13.9696 2.97897C12.7526 2.33676 11.3823 1.9976 10.0059 1.9976H9.99618C5.31028 1.9976 1.4971 5.81119 1.4971 10.4987C1.49534 11.8641 1.82822 13.2234 2.45964 14.4312L2.65162 14.8065C2.88675 15.247 2.93871 15.794 2.78636 16.2891C2.57588 16.8441 2.40064 17.3841 2.25621 17.9215C2.81806 17.7523 3.50408 17.503 3.99988 17.3224L4.20331 17.2493C4.58815 17.1057 5.02055 17.3092 5.16145 17.6986C5.30235 18.0871 5.10069 18.517 4.71232 18.6571L4.51154 18.7302L4.47736 18.7426L4.47733 18.7426C3.73908 19.0101 2.74506 19.3703 2.0704 19.5213C2.01227 19.5336 1.94975 19.5415 1.89251 19.5398C1.43281 19.5398 1.15277 19.3539 0.998654 19.1971C0.761761 18.9566 0.649039 18.6192 0.662249 18.1946C0.66401 18.1461 0.670175 18.0959 0.681623 18.0475C0.859513 17.2899 1.09112 16.534 1.37117 15.8019C1.39142 15.7306 1.37909 15.6011 1.32185 15.4927L1.12899 15.1183C0.39013 13.7035 -0.00175537 12.1029 5.91087e-06 10.4978C5.91087e-06 4.98487 4.48424 0.5 9.9953 0.5H10.0067ZM4.40348 10.4991C4.40348 9.84282 4.93627 9.30985 5.59235 9.30985C6.24843 9.30985 6.78122 9.84282 6.78122 10.4991C6.78122 11.1545 6.24843 11.6875 5.59235 11.6875C4.93627 11.6875 4.40348 11.1545 4.40348 10.4991ZM11.1845 10.4988C11.1845 9.84335 10.6517 9.3095 9.99565 9.3095C9.33957 9.3095 8.80678 9.84335 8.80678 10.4988C8.80678 11.1542 9.33957 11.688 9.99565 11.688C10.6517 11.688 11.1845 11.1542 11.1845 10.4988ZM14.3989 9.3095C15.0549 9.3095 15.5877 9.84335 15.5877 10.4988C15.5877 11.1542 15.0549 11.688 14.3989 11.688C13.7428 11.688 13.21 11.1542 13.21 10.4988C13.21 9.84335 13.7428 9.3095 14.3989 9.3095Z" fill="#19235B"/>
</svg>
