<svg width="30" height="30" viewBox="0 0 30 30" fill="none" xmlns="http://www.w3.org/2000/svg">
<path fill-rule="evenodd" clip-rule="evenodd" d="M28.0961 14.3669C28.6868 14.3669 29.1671 13.8584 29.1671 13.2329V9.37938C29.1671 3.58788 25.7529 -0.00012207 20.3172 -0.00012207H9.69216C4.22241 -0.00012207 0.83374 3.58788 0.83374 9.38388V20.6339C0.83374 26.4119 4.22241 29.9999 9.69216 29.9999H20.3214C25.7784 29.9999 29.1671 26.4119 29.1628 20.6294C29.1628 19.9964 28.6769 19.4819 28.0791 19.4819C27.4798 19.4819 26.9953 19.9964 26.9953 20.6294C26.9953 25.1804 24.6281 27.7004 20.3172 27.7004H9.69216C5.38124 27.7004 3.00124 25.1804 3.00124 20.6294V9.37938C3.00124 4.81488 5.38124 2.29488 9.69641 2.29488H20.3214C24.6337 2.29488 26.9996 4.79988 26.9996 9.37938V13.1924V13.1954C27.001 13.8284 27.4855 14.3399 28.0833 14.3399V14.3669H28.0961ZM11.9047 16.718L10.9357 17.744C10.5036 18.179 10.4795 18.9005 10.8818 19.367L10.913 19.391C11.3267 19.829 11.9925 19.841 12.4189 19.418L13.3837 18.3965C13.8214 17.9645 13.8455 17.2385 13.4375 16.7735C13.0281 16.3115 12.3424 16.2845 11.9047 16.718ZM19.4525 19.2048C19.036 19.6443 18.363 19.6533 17.9366 19.2228L17.8828 19.1673L11.1111 11.9988C10.6975 11.5338 10.689 10.8108 11.0927 10.3368C11.5064 9.88831 12.1835 9.87931 12.6071 10.3173C12.6114 10.3203 12.6142 10.3233 12.6184 10.3278L12.6185 10.3278L15.2605 13.1268L17.6646 10.5798C18.0967 10.1433 18.7781 10.1478 19.206 10.5903C19.2825 10.6713 19.3476 10.7628 19.3972 10.8648C19.6423 11.3163 19.5715 11.8833 19.2244 12.2523L16.8302 14.7858L19.434 17.5443C19.8732 17.9838 19.8902 18.7173 19.4737 19.1808C19.4705 19.1859 19.4663 19.1901 19.4621 19.1944C19.4588 19.1976 19.4555 19.2009 19.4525 19.2048Z" fill="white"/>
</svg>
