<svg width="12" height="17" viewBox="0 0 12 17" fill="none" xmlns="http://www.w3.org/2000/svg">
<path d="M5.87774 7.74203C6.15341 7.74203 6.42638 7.68933 6.68106 7.58694C6.93575 7.48455 7.16716 7.33448 7.36209 7.14529C7.55702 6.95611 7.71164 6.73151 7.81714 6.48432C7.92263 6.23713 7.97693 5.9722 7.97693 5.70465C7.97693 5.16431 7.75576 4.64609 7.36209 4.26401C6.96841 3.88193 6.43448 3.66728 5.87774 3.66728C5.321 3.66728 4.78706 3.88193 4.39338 4.26401C3.99971 4.64609 3.77854 5.16431 3.77854 5.70465C3.77854 5.9722 3.83284 6.23713 3.93834 6.48432C4.04383 6.73151 4.19846 6.95611 4.39338 7.14529C4.78706 7.52737 5.321 7.74203 5.87774 7.74203ZM5.87774 0C9.11889 0 11.7555 2.55079 11.7555 5.70465C11.7555 9.98314 5.87774 16.299 5.87774 16.299C5.87774 16.299 0 9.98314 0 5.70465C0 4.19168 0.61926 2.74068 1.72155 1.67085C2.82384 0.601024 4.31886 0 5.87774 0Z" fill="#E20000"/>
</svg>
